<svg xmlns="http://www.w3.org/2000/svg" xmlns:xlink="http://www.w3.org/1999/xlink" id="Capa_1" x="0" y="0" version="1.1" viewBox="0 0 199.387 199.387" xml:space="preserve" style="enable-background:new 0 0 199.387 199.387"><pattern id="Líneas_finas_ondulantes" width="60.75" height="72" x="27.011" y="715.771" patternUnits="userSpaceOnUse" viewBox="1.25 -72 60.75 72" style="overflow:visible"><g><polygon style="fill:none" points="1.25 -72 62 -72 62 0 1.25 0"/><g><line style="fill:none;stroke:#1d1d1b;stroke-width:2.5" x1="62" x2="62" y1="-72" y2="0"/></g><g><line style="fill:none;stroke:#1d1d1b;stroke-width:.5" x1="31.625" x2="31.625" y1="-72" y2="0"/><line style="fill:none;stroke:#1d1d1b;stroke-width:.75" x1="27.828" x2="27.828" y1="-72" y2="0"/><line style="fill:none;stroke:#1d1d1b" x1="24.031" x2="24.031" y1="-72" y2="0"/><line style="fill:none;stroke:#1d1d1b;stroke-width:1.25" x1="20.234" x2="20.234" y1="-72" y2="0"/><line style="fill:none;stroke:#1d1d1b;stroke-width:1.5" x1="16.437" x2="16.437" y1="-72" y2="0"/><line style="fill:none;stroke:#1d1d1b;stroke-width:1.75" x1="12.64" x2="12.64" y1="-72" y2="0"/><line style="fill:none;stroke:#1d1d1b;stroke-width:2" x1="8.843" x2="8.843" y1="-72" y2="0"/><line style="fill:none;stroke:#1d1d1b;stroke-width:2.25" x1="5.046" x2="5.046" y1="-72" y2="0"/><line style="fill:none;stroke:#1d1d1b;stroke-width:2.5" x1="1.25" x2="1.25" y1="-72" y2="0"/><line style="fill:none;stroke:#1d1d1b;stroke-width:.75" x1="35.421" x2="35.421" y1="-72" y2="0"/><line style="fill:none;stroke:#1d1d1b" x1="39.218" x2="39.218" y1="-72" y2="0"/><line style="fill:none;stroke:#1d1d1b;stroke-width:1.25" x1="43.015" x2="43.015" y1="-72" y2="0"/><line style="fill:none;stroke:#1d1d1b;stroke-width:1.5" x1="46.812" x2="46.812" y1="-72" y2="0"/><line style="fill:none;stroke:#1d1d1b;stroke-width:1.75" x1="50.609" x2="50.609" y1="-72" y2="0"/><line style="fill:none;stroke:#1d1d1b;stroke-width:2" x1="54.406" x2="54.406" y1="-72" y2="0"/><line style="fill:none;stroke:#1d1d1b;stroke-width:2.25" x1="58.203" x2="58.203" y1="-72" y2="0"/><line style="fill:none;stroke:#1d1d1b;stroke-width:2.5" x1="62" x2="62" y1="-72" y2="0"/></g><g><line style="fill:none;stroke:#1d1d1b;stroke-width:2.5" x1="1.25" x2="1.25" y1="-72" y2="0"/></g></g></pattern><g><polygon style="fill:#e85f21" points="139.421 28.78 139.421 7.612 172.902 7.612 172.902 58.047"/><polygon style="fill:#f16c21" points="199.387 105.531 199.387 105.229 160.811 36.343 99.695 5.785 38.576 36.343 0 105.229 0 105.531"/><path style="fill:#dbdbb9" d="M155.175,42.248L99.694,14.507L44.212,42.248L7.803,107.265c0,0,0,86.689,0,88.042h91.891h91.891 c0-1.353,0-88.042,0-88.042L155.175,42.248z"/><path style="opacity:.12;fill:url(#Líneas_finas_ondulantes)" d="M155.175,42.248L99.694,14.507L44.212,42.248L7.803,107.265 c0,0,0,86.689,0,88.042h91.891h91.891c0-1.353,0-88.042,0-88.042L155.175,42.248z"/><rect style="fill:#dbdbb9" width="74.77" height="70.488" x="61.55" y="124.82"/><rect style="fill:#51444c" width="67.851" height="66.302" x="64.97" y="129.006"/><circle style="fill:#dbdbb9" cx="98.447" cy="61.591" r="12.841"/><circle style="fill:#51444c" cx="98.447" cy="61.591" r="9.08"/><rect style="fill:#dbdbb9" width="1.246" height="66.801" x="98.448" y="128.507"/><rect style="fill:#f16c21" width="85.452" height="7.517" x="55.968" y="117.302"/><path style="fill:#dbdbb9" d="M94.946,170.983h-0.749c-0.413,0-0.75-0.337-0.75-0.75v-13.492c0-0.412,0.337-0.75,0.75-0.75h0.749 c0.412,0,0.75,0.338,0.75,0.75v13.492C95.696,170.645,95.358,170.983,94.946,170.983z"/><path style="fill:#dbdbb9" d="M103.94,170.983h-0.749c-0.413,0-0.75-0.337-0.75-0.75v-13.492c0-0.412,0.337-0.75,0.75-0.75h0.749 c0.413,0,0.75,0.338,0.75,0.75v13.492C104.69,170.645,104.353,170.983,103.94,170.983z"/><rect style="fill:#c8541a" width="37.909" height="9.338" x="137.491" y="4.079"/></g></svg>